<?xml version="1.0" encoding="UTF-8"?>
<svg width="91px" height="23px" viewBox="0 0 91 23" version="1.1" xmlns="http://www.w3.org/2000/svg" xmlns:xlink="http://www.w3.org/1999/xlink">
    <!-- Generator: Sketch 44.1 (41455) - http://www.bohemiancoding.com/sketch -->
    <title>logo/avanade</title>
    <desc>Created with Sketch.</desc>
    <defs>
        <linearGradient x1="-1.3751946%" y1="81.1958388%" x2="90.2957966%" y2="41.8124922%" id="linearGradient-1">
            <stop stop-color="#FF5800" offset="20%"></stop>
            <stop stop-color="#FF7000" offset="24%"></stop>
            <stop stop-color="#FF9500" offset="32%"></stop>
            <stop stop-color="#FFB200" offset="40%"></stop>
            <stop stop-color="#FFC600" offset="47%"></stop>
            <stop stop-color="#FFD300" offset="55%"></stop>
            <stop stop-color="#FFD700" offset="62%"></stop>
            <stop stop-color="#FFCE00" offset="66%"></stop>
            <stop stop-color="#FFB600" offset="72%"></stop>
            <stop stop-color="#FF8E00" offset="81%"></stop>
            <stop stop-color="#FF5800" offset="90%"></stop>
        </linearGradient>
        <linearGradient x1="-1.92211741e-14%" y1="49.9901255%" x2="100%" y2="49.9901255%" id="linearGradient-2">
            <stop stop-color="#FF5800" offset="9%"></stop>
            <stop stop-color="#FF7907" offset="19%"></stop>
            <stop stop-color="#FF990E" offset="31%"></stop>
            <stop stop-color="#FFAD12" offset="40%"></stop>
            <stop stop-color="#FFB414" offset="47%"></stop>
            <stop stop-color="#FFAD12" offset="53%"></stop>
            <stop stop-color="#FF980E" offset="62%"></stop>
            <stop stop-color="#FF7707" offset="73%"></stop>
            <stop stop-color="#FF5800" offset="82%"></stop>
        </linearGradient>
        <linearGradient x1="2.26382979%" y1="31.5658172%" x2="99.0553191%" y2="68.3369578%" id="linearGradient-3">
            <stop stop-color="#FF5800" offset="50%"></stop>
            <stop stop-color="#CE056A" stop-opacity="0.99" offset="64%"></stop>
            <stop stop-color="#CF0768" stop-opacity="0.99" offset="76%"></stop>
            <stop stop-color="#D20D60" stop-opacity="0.99" offset="81%"></stop>
            <stop stop-color="#D81753" stop-opacity="0.99" offset="85%"></stop>
            <stop stop-color="#E12541" stop-opacity="0.99" offset="88%"></stop>
            <stop stop-color="#EC3829" offset="91%"></stop>
            <stop stop-color="#F94E0C" offset="94%"></stop>
            <stop stop-color="#FF5800" offset="95%"></stop>
        </linearGradient>
        <linearGradient x1="3.2736528%" y1="58.7210563%" x2="101.044409%" y2="28.2009189%" id="linearGradient-4">
            <stop stop-color="#FF5800" offset="0%"></stop>
            <stop stop-color="#FC5400" offset="6%"></stop>
            <stop stop-color="#F54700" offset="13%"></stop>
            <stop stop-color="#E83300" offset="19%"></stop>
            <stop stop-color="#D61600" offset="26%"></stop>
            <stop stop-color="#C80000" offset="30%"></stop>
            <stop stop-color="#C80000" offset="48%"></stop>
            <stop stop-color="#FF5800" offset="91%"></stop>
        </linearGradient>
    </defs>
    <g id="Page-1" stroke="none" stroke-width="1" fill="none" fill-rule="evenodd">
        <g id="Email" transform="translate(-15.000000, -22.000000)">
            <g id="logo/avanade" transform="translate(15.000000, 22.000000)">
                <g id="AvanadeLogoNoTM_AWColor_RGB">
                    <path d="M31.6809719,9.2491453 C31.1646068,9.24816225 30.6493145,9.29621258 30.1420302,9.39264957 C29.7271086,9.45890397 29.3255878,9.59166305 28.9529374,9.78581197 L29.1121382,11.2778632 C29.5024781,11.1632948 29.8996232,11.0733459 30.3012311,11.008547 C30.653204,10.9558031 31.0086344,10.9295186 31.3645356,10.9299145 C32.7180706,10.9299145 33.394838,11.4482336 33.394838,12.4848718 L33.394838,12.8347863 C32.9545372,12.7620479 32.5084229,12.7304586 32.0622678,12.7404274 C30.8830022,12.7404274 29.9467963,13.0025356 29.2536501,13.5267521 C28.5713597,14.0432322 28.1857585,14.8615948 28.2217927,15.7166667 C28.2217927,17.6208832 29.5222606,18.5729915 32.1231965,18.5729915 C33.2396623,18.5647379 34.3498227,18.4046966 35.4231749,18.097265 L35.4231749,12.6441026 C35.4244852,10.3807977 34.1770842,9.2491453 31.6809719,9.2491453 Z M33.394838,16.8647009 C32.9703176,16.976344 32.5326242,17.0299087 32.0937149,17.0239316 C30.8672786,17.0239316 30.2540605,16.5796581 30.2540605,15.6911111 C30.2540605,14.7606268 30.9308279,14.2953846 32.2843629,14.2953846 C32.6570724,14.2771497 33.0305455,14.3088844 33.394838,14.3897436 L33.394838,16.8647009 Z" id="Shape" fill="#FF5800" fill-rule="nonzero"></path>
                    <polygon id="Shape" fill="#FF5800" fill-rule="nonzero" points="36.3449676 9.46931624 38.597365 9.46931624 40.7868683 16.3241026 43.0078186 9.46931624 45.1639093 9.46931624 41.8010367 18.3547863 39.7078402 18.3547863"></polygon>
                    <path d="M49.0987257,9.2491453 C48.5823606,9.24816225 48.0670683,9.29621258 47.559784,9.39264957 C47.1448624,9.45890397 46.7433416,9.59166305 46.3706911,9.78581197 L46.529892,11.2778632 C46.9202319,11.1632948 47.317377,11.0733459 47.7189849,11.008547 C48.0709578,10.9558031 48.4263882,10.9295186 48.7822894,10.9299145 C50.1358243,10.9299145 50.8125918,11.4482336 50.8125918,12.4848718 L50.8125918,12.8347863 C50.372291,12.7620479 49.9261767,12.7304586 49.4800216,12.7404274 C48.3007559,12.7404274 47.36455,13.0025356 46.6714039,13.5267521 C45.9891134,14.0432322 45.6035123,14.8615948 45.6395464,15.7166667 C45.6395464,17.6208832 46.9406695,18.5729915 49.5429158,18.5729915 C50.6593815,18.5647379 51.7695419,18.4046966 52.8428942,18.097265 L52.8428942,12.6441026 C52.8428942,10.3807977 51.594838,9.2491453 49.0987257,9.2491453 Z M50.8125918,16.8647009 C50.3880714,16.976344 49.9503779,17.0299087 49.5114687,17.0239316 C48.2850324,17.0239316 47.6718143,16.5796581 47.6718143,15.6911111 C47.6718143,14.7606268 48.3485817,14.2953846 49.7021166,14.2953846 C50.0748261,14.2771497 50.4482993,14.3088844 50.8125918,14.3897436 L50.8125918,16.8647009 Z" id="Shape" fill="#FF5800" fill-rule="nonzero"></path>
                    <path d="M60.6968035,13.1198291 C60.6968035,12.3164672 60.5434989,11.761453 60.2368898,11.4547863 C59.9302808,11.1481197 59.3858531,10.9947863 58.6036069,10.9947863 C58.3749879,10.9981128 58.1469698,11.0191443 57.9215983,11.0576923 C57.6706539,11.0975413 57.4220027,11.1506931 57.1766955,11.2169231 L57.1766955,18.3567521 L55.1070842,18.3567521 L55.1070842,9.91555556 C55.6910453,9.68914647 56.2970765,9.52443316 56.9152916,9.42410256 C57.5643092,9.31026346 58.2218173,9.25173425 58.8807343,9.2491453 C61.4607055,9.2491453 62.7506911,10.412906 62.7506911,12.7404274 L62.7506911,18.3567521 L60.6968035,18.3567521 L60.6968035,13.1198291 Z" id="Shape" fill="#FF5800" fill-rule="nonzero"></path>
                    <path d="M67.837257,9.2491453 C67.3208919,9.24816225 66.8055996,9.29621258 66.2983153,9.39264957 C65.8833937,9.45890397 65.4818729,9.59166305 65.1092225,9.78581197 L65.2684233,11.2778632 C65.6587619,11.1632898 66.0559074,11.0733408 66.4575162,11.008547 C66.80949,10.9558104 67.1649198,10.929526 67.5208207,10.9299145 C68.8743557,10.9299145 69.5511231,11.4482336 69.5511231,12.4848718 L69.5511231,12.8347863 C69.1108236,12.7620366 68.6647083,12.7304472 68.2185529,12.7404274 C67.0392873,12.7404274 66.1030814,13.0025356 65.4099352,13.5267521 C64.7276448,14.0432322 64.3420436,14.8615948 64.3780778,15.7166667 C64.3780778,17.6208832 65.6785457,18.5729915 68.2794816,18.5729915 C69.3959474,18.5647379 70.5061078,18.4046966 71.57946,18.097265 L71.57946,12.6441026 C71.57946,10.3807977 70.332059,9.2491453 67.837257,9.2491453 Z M69.5511231,16.8647009 C69.1266027,16.976344 68.6889093,17.0299087 68.25,17.0239316 C67.0235637,17.0239316 66.4103456,16.5796581 66.4103456,15.6911111 C66.4103456,14.7606268 67.087113,14.2953846 68.4406479,14.2953846 C68.8133575,14.2771497 69.1868306,14.3088844 69.5511231,14.3897436 L69.5511231,16.8647009 Z" id="Shape" fill="#FF5800" fill-rule="nonzero"></path>
                    <path d="M79.2584449,6.04290598 L79.2584449,9.43786325 C78.7745319,9.2946843 78.271151,9.22835024 77.7666739,9.24128205 C76.4131389,9.24128205 75.3131461,9.68031339 74.4666955,10.5583761 C73.6202448,11.4364387 73.1943988,12.5864387 73.1891577,14.0083761 C73.1891577,15.4892877 73.6019006,16.6209402 74.4273866,17.4033333 C75.2528726,18.1857265 76.4583441,18.5788889 78.0438013,18.5828205 C79.1493618,18.5671094 80.2481472,18.407184 81.3123326,18.107094 L81.3123326,6.04290598 L79.2584449,6.04290598 Z M79.2584449,16.7369231 C78.8440578,16.8431661 78.4160114,16.8862438 77.9887689,16.8647009 C76.2329734,16.8647009 75.3550756,15.9021083 75.3550756,13.9769231 C75.3550756,13.0045014 75.5824118,12.2535613 76.0370842,11.7241026 C76.4917567,11.1946439 77.1318359,10.9325356 77.9573218,10.9377778 C78.4013368,10.9266133 78.8432745,11.002064 79.2584449,11.1599145 L79.2584449,16.7369231 Z" id="Shape" fill="#FF5800" fill-rule="nonzero"></path>
                    <path d="M90.9017279,13.4422222 C90.9017279,12.1526496 90.5630166,11.1317379 89.885594,10.3794872 C89.2081713,9.62723647 88.2909647,9.25176638 87.1339741,9.25307692 C85.8642981,9.25307692 84.8540605,9.67638177 84.1032613,10.5229915 C83.3524622,11.3696011 82.9770626,12.5222222 82.9770626,13.9808547 C82.9770626,15.4407977 83.3786681,16.5724501 84.181879,17.375812 C84.98509,18.1791738 86.1270122,18.5808547 87.6076458,18.5808547 C88.5484696,18.5851296 89.4817696,18.4131035 90.3592657,18.0736752 L90.1371706,16.5187179 C89.3704433,16.7770659 88.5660652,16.90595 87.7570194,16.9000855 C86.0221886,16.9000855 85.1338085,16.117037 85.091879,14.5509402 L90.897797,14.5509402 L90.9017279,13.4422222 Z M85.0958099,12.9979487 C85.121608,12.4153245 85.3392749,11.8575779 85.7149244,11.4115385 C86.0587548,11.0323487 86.5516659,10.8232174 87.0632181,10.8394872 C87.5705709,10.8213544 88.0594239,11.0312113 88.3957883,11.4115385 C88.7338445,11.792906 88.9028726,12.3217094 88.9028726,12.9979487 L85.0958099,12.9979487 Z" id="Shape" fill="#FF5800" fill-rule="nonzero"></path>
                    <path d="M6.1675594,5.67333333 C5.4613103,7.03891738 4.8900216,8.12797721 4.4536933,8.94051282 C4.09514826,9.62545167 3.69406809,10.2872598 3.25280778,10.9220513 C2.92634018,11.3896024 2.53601203,11.8091186 2.09319654,12.1683761 C1.59660786,12.5522513 1.07888336,12.9079667 0.542462203,13.2338462 L0.194578834,12.7011111 C0.587667387,12.4088604 0.944067675,12.119886 1.2637797,11.834188 C1.64428623,11.474364 1.98616374,11.0757614 2.28384449,10.6448718 C2.74093469,9.98756455 3.16278905,9.30643378 3.54762419,8.60435897 C4.02588193,7.75250712 4.61551476,6.60316239 5.31652268,5.15632479 C5.7361608,4.26665286 6.21756097,3.40745817 6.75719222,2.58504274 C7.13085475,2.01167042 7.57015564,1.48388253 8.06617711,1.01239316 C8.41984588,0.672237806 8.83374585,0.400919075 9.28671706,0.212307692 C9.66903701,0.066671815 10.0768376,-0.000193305916 10.4856371,0.0157264957 C10.8848226,0.0322336027 11.2765663,0.129184973 11.6373866,0.300769231 C12.1192486,0.559702333 12.5437768,0.913430864 12.8854428,1.34068376 C13.4577626,2.03491102 13.963783,2.78125032 14.3968683,3.56991453 C14.9537437,4.5397151 15.612167,5.81421652 16.3721382,7.3934188 C16.7868766,8.27148629 17.2521567,9.12476938 17.7656371,9.94897436 C18.1468594,10.5619662 18.5987295,11.1280646 19.1119654,11.635641 C19.5573365,12.0682902 20.0647681,12.43204 20.6174946,12.7148718 C21.2173129,13.0122144 21.8429375,13.2543523 22.4866307,13.4382906 L22.9190281,14.1892308 C22.1435666,14.115109 21.3795959,13.949485 20.6430454,13.695812 C19.9623959,13.4488799 19.3328487,13.0790764 18.7857019,12.6047863 C18.1519806,12.047375 17.59367,11.4096579 17.1249028,10.7077778 C16.5029896,9.78001622 15.9492445,8.8083165 15.4680346,7.80034188 C14.7630958,6.38626781 14.1662563,5.23626781 13.6775162,4.35034188 C13.2939205,3.63027322 12.8584059,2.93910059 12.3744276,2.28230769 C12.1010006,1.87937334 11.7551104,1.53075188 11.3543629,1.25418803 C11.0794796,1.08761828 10.7673592,0.992342865 10.4463283,0.977008547 C10.1168739,0.966177846 9.78953871,1.03354341 9.49112311,1.17358974 C9.11700814,1.36139143 8.7831814,1.62048964 8.50840173,1.93632479 C8.10263655,2.39162572 7.7376278,2.88168446 7.41758099,3.4008547 C7.03759539,4.01287749 6.62092153,4.77037037 6.1675594,5.67333333 Z" id="Shape" fill="url(#linearGradient-1)" fill-rule="nonzero"></path>
                    <path d="M16.5745788,14.6217094 C17.5978087,14.6588548 18.6223345,14.6075531 19.6367387,14.4683761 C20.5495605,14.3491337 21.4478344,14.137038 22.3176026,13.8353846 L22.4198056,14.3897436 C21.0191001,15.2835328 19.0588985,15.68849 16.5392009,15.6046154 C15.5448137,15.5850024 14.5558233,15.4531122 13.5910367,15.211453 C12.8335651,15.0139871 12.0959974,14.7468071 11.3877754,14.4133333 C10.906897,14.1931624 10.4482937,13.9625071 10.0119654,13.7213675 C9.57563715,13.4802279 9.12686105,13.2561254 8.66563715,13.0490598 C8.21468525,12.8492945 7.75116345,12.679217 7.27803456,12.5399145 C6.78807542,12.3984119 6.28225661,12.3191565 5.7725054,12.3040171 C4.96659981,12.2774456 4.1601557,12.3367541 3.36680346,12.4809402 C2.55045898,12.6279999 1.74965656,12.8511083 0.974859611,13.1473504 L0.623045356,12.7364957 L1.27557235,12.4219658 C1.95089444,12.0361405 2.67938493,11.7519759 3.4375594,11.5786325 C4.21502026,11.3860474 5.01516444,11.3007267 5.81574514,11.3250427 C6.38604369,11.3407724 6.95259683,11.4225719 7.50406048,11.5688034 C8.0054674,11.7049014 8.4951284,11.881081 8.96831533,12.095641 C9.42953924,12.3066382 9.88814255,12.5372934 10.3441253,12.7876068 C10.800108,13.0379202 11.2809863,13.2744729 11.7867603,13.497265 C12.4502329,13.7954678 13.1339443,14.0464062 13.8327862,14.2482051 C14.728422,14.482292 15.6489745,14.6076955 16.5745788,14.6217094 L16.5745788,14.6217094 Z" id="Shape" fill="url(#linearGradient-2)" fill-rule="nonzero"></path>
                    <path d="M18.0584881,7.13196581 C17.6926661,7.11896063 17.3302976,7.2066798 17.0109071,7.38555556 C16.5735176,7.65839995 16.184334,8.0018227 15.8591577,8.40188034 C15.3088317,9.05124821 14.8000787,9.73474667 14.3359395,10.4482906 C13.7554788,11.3171795 13.0348164,12.4409687 12.1739525,13.8196581 C11.0077898,15.7002849 9.92614111,17.0566952 8.92900648,17.8888889 C7.93187185,18.7210826 6.88035997,19.1194872 5.77447084,19.0841026 C4.61485961,19.0434758 3.52469402,18.4642165 2.50397408,17.3463248 C1.48325414,16.228433 0.714110871,14.6793732 0.196544276,12.6991453 L1.167473,12.8957265 C1.70338373,14.4683761 2.38277178,15.7232194 3.20563715,16.6602564 C4.02850252,17.5972934 4.89788337,18.0821937 5.8137797,18.1149573 C6.66809215,18.1450997 7.53157667,17.7873219 8.40423326,17.0416239 C9.27688985,16.2959259 10.2419222,15.0731909 11.2993305,13.3734188 C12.2492945,11.8545014 13.0466091,10.6206268 13.6912743,9.67179487 C14.2023446,8.89510379 14.7692332,8.15663039 15.3874514,7.46222222 C15.7623886,7.02352805 16.2215416,6.66455939 16.7377106,6.4065812 C17.1650303,6.22448682 17.6279187,6.14116469 18.0919006,6.16282051 C19.1912383,6.20082621 20.1667531,6.85609687 21.0184449,8.12863248 C21.8701368,9.40116809 22.6274874,11.3479772 23.2904968,13.9690598 L22.235054,13.5346154 C21.5799064,11.3669801 20.912311,9.76549858 20.2322678,8.73017094 C19.5522246,7.6948433 18.8276314,7.16210826 18.0584881,7.13196581 Z" id="Shape" fill="url(#linearGradient-3)" fill-rule="nonzero"></path>
                    <path d="M14.3339741,21.8952137 C14.8824992,21.900067 15.4165456,21.7192469 15.8493305,21.3821368 C16.3511735,21.0217379 16.9866667,20.3337037 17.7558099,19.3180342 C18.3533045,18.5421937 18.8446652,17.9006838 19.229892,17.3935043 C19.6151188,16.8863248 19.9774154,16.4394302 20.3167819,16.0528205 C20.6561483,15.6662108 21.005342,15.2953276 21.3643629,14.9401709 C21.7233837,14.5850142 22.1662635,14.1512251 22.6930022,13.6388034 L23.2924622,13.967094 C22.8037221,14.5227635 22.39491,14.9939031 22.0660259,15.3805128 C21.7371418,15.7671225 21.409568,16.1642165 21.0833045,16.5717949 C20.7635925,16.9793732 20.4111231,17.4380627 20.0258963,17.9478632 C19.6406695,18.4576638 19.1493089,19.1096581 18.5518143,19.9038462 C17.7394312,20.9994587 17.0141829,21.7759544 16.3760691,22.2333333 C15.7764082,22.6770584 15.0440645,22.9043563 14.2985961,22.8781197 C13.9203865,22.8695097 13.5460551,22.7998073 13.1900864,22.6717094 C12.771394,22.4952186 12.3828026,22.2544589 12.0383369,21.9581197 C11.4905983,21.4979054 10.9769274,20.9985918 10.5013607,20.4641026 C9.91303816,19.8206268 9.16813535,18.9825356 8.26665227,17.9498291 C7.5800576,17.1635043 6.96094312,16.5082336 6.40930886,15.9840171 C5.90966351,15.4946293 5.3557471,15.0639443 4.75833693,14.7003419 C4.21273545,14.3754821 3.63005783,14.1174189 3.02285097,13.9317094 C2.32874646,13.7298205 1.61752926,13.5922883 0.898207343,13.5208547 L1.13799136,12.7935043 C1.88406583,12.8508838 2.62541424,12.9585932 3.35697624,13.1158974 C4.00158896,13.2602384 4.62145007,13.4986913 5.19663067,13.8235897 C5.82968089,14.1902452 6.41914454,14.6274799 6.9537365,15.1269231 C7.65212407,15.7797162 8.3116772,16.4728694 8.92900648,17.2028205 C9.83966163,18.2342165 10.5767027,19.0565812 11.1401296,19.6699145 C11.7035565,20.2832479 12.1759179,20.7543875 12.5572138,21.0833333 C12.8374831,21.350494 13.1603065,21.5690719 13.512419,21.7300855 C13.7750105,21.83104 14.0527755,21.8868693 14.3339741,21.8952137 L14.3339741,21.8952137 Z" id="Shape" fill="url(#linearGradient-4)" fill-rule="nonzero"></path>
                </g>
            </g>
        </g>
    </g>
</svg>