<?xml version="1.0" encoding="UTF-8"?>
<svg width="156px" height="246px" viewBox="0 0 156 246" version="1.1" xmlns="http://www.w3.org/2000/svg" xmlns:xlink="http://www.w3.org/1999/xlink">
    <!-- Generator: Sketch 44 (41411) - http://www.bohemiancoding.com/sketch -->
    <title>logo/lds</title>
    <desc>Created with Sketch.</desc>
    <defs></defs>
    <g id="Page-1" stroke="none" stroke-width="1" fill="none" fill-rule="evenodd">
        <g id="IMG" transform="translate(-63.000000, -114.000000)">
            <g id="logo/lds" transform="translate(62.000000, 114.000000)">
                <g id="Group">
                    <polygon id="Shape" fill="#808080" fill-rule="nonzero" points="47.885 243.082326 2.55978261 243.082326 2.55978261 238.848837 44.0396377 238.848837 44.0396377 220.54186 47.8622464 220.54186"></polygon>
                    <path d="M48.6813768,198.779442 C48.7287569,201.830211 48.1194386,204.85519 46.8952174,207.646884 C45.7599975,210.201643 44.0961104,212.483553 42.0145652,214.340372 C39.8809158,216.215514 37.4037165,217.653586 34.722029,218.57386 C31.8273555,219.575869 28.7842039,220.074998 25.722971,220.04986 C22.4226538,220.088607 19.1378355,219.590169 15.9957971,218.57386 C13.209274,217.674441 10.6374875,216.205906 8.4415942,214.260279 C6.31835832,212.341282 4.64383159,209.973381 3.53818841,207.326512 C2.32545202,204.36357 1.72918212,201.182155 1.78615942,197.978512 C1.7359843,194.993593 2.32174133,192.032457 3.50405797,189.29414 C4.61005299,186.792213 6.23990921,184.559813 8.28231884,182.749395 C10.3954351,180.900658 12.850379,179.489256 15.5065942,178.596 C18.4390211,177.607437 21.5154479,177.120129 24.6080435,177.154326 C27.8511471,177.126193 31.078919,177.604828 34.175942,178.573116 C36.9705346,179.437242 39.5657462,180.853126 41.8097826,182.737953 C43.9756598,184.590539 45.7049351,186.904211 46.8724638,189.511535 C48.1346844,192.432945 48.7518426,195.594935 48.6813768,198.779442 Z M5.62014493,198.424744 C5.5720101,200.958745 6.10945029,203.469389 7.19014493,205.758977 C8.19691159,207.841924 9.64081221,209.680541 11.4223188,211.148093 C13.2767357,212.648164 15.401224,213.774753 17.6795652,214.466233 C20.1539534,215.225033 22.7265454,215.610622 25.3134058,215.610419 C27.8103474,215.64042 30.2981161,215.301166 32.6969565,214.603535 C34.9460538,213.965256 37.0566813,212.909729 38.9200725,211.491349 C40.733914,210.086719 42.2080292,208.287325 43.2318841,206.228093 C44.3513162,203.913685 44.9051712,201.363938 44.8473913,198.790884 C44.901065,196.219252 44.400389,193.666428 43.3797826,191.307907 C42.4499106,189.221854 41.0565306,187.378183 39.3068841,185.918791 C37.4730284,184.426416 35.3610825,183.317724 33.0951449,182.65786 C30.5412116,181.888755 27.8883402,181.5032 25.2223913,181.513674 C22.6726882,181.501263 20.1325658,181.828288 17.6681884,182.486233 C15.4098017,183.072505 13.2877535,184.098778 11.4223188,185.506884 C9.62614948,186.894813 8.1769664,188.685305 7.19014493,190.735814 C6.07928311,193.141089 5.54170232,195.773841 5.62014493,198.424744 L5.62014493,198.424744 Z" id="Shape" fill="#808080" fill-rule="nonzero"></path>
                    <path d="M47.885,139.41907 L11.4792029,164.728465 C11.0165459,165.048837 10.5425121,165.361581 10.0571014,165.666698 C9.60544577,165.955675 9.12961243,166.204523 8.635,166.410419 L8.635,166.570605 C9.01422705,166.524837 9.54135266,166.486698 10.2163768,166.456186 C10.891401,166.425674 11.733285,166.425674 12.742029,166.456186 L47.8622464,166.456186 L47.8622464,170.689674 L2.55978261,170.689674 L2.55978261,166.009953 L38.5105072,141.112465 C39.0793478,140.73107 39.6102657,140.387814 40.1032609,140.082698 L41.4798551,139.236 L41.4798551,139.05293 C40.7820773,139.136837 40.0008696,139.201674 39.1362319,139.247442 C38.2715942,139.293209 37.3121498,139.316093 36.2578986,139.316093 L2.55978261,139.316093 L2.55978261,135.059721 L47.8963768,135.059721 L47.885,139.41907 Z" id="Shape" fill="#808080" fill-rule="nonzero"></path>
                    <path d="M47.885,125.482884 L2.55978261,125.482884 L2.55978261,113.491814 C2.55978261,105.688465 4.41799517,99.795907 8.13442029,95.8141395 C11.8508454,91.8323721 17.3458454,89.8453023 24.6194203,89.8529302 C27.8765165,89.8108142 31.1130787,90.3772503 34.1645652,91.5234419 C36.9335673,92.5724227 39.4416886,94.2163182 41.5139855,96.3404651 C43.5999489,98.5231085 45.2048594,101.123582 46.2239855,103.972186 C47.3741953,107.216806 47.9367639,110.642519 47.885,114.086791 L47.885,125.482884 Z M6.40514493,121.249395 L44.0396377,121.249395 L44.0396377,114.258419 C44.0837397,111.404236 43.6570116,108.562447 42.7768116,105.848651 C42.0087092,103.506239 40.7387579,101.361928 39.0565942,99.5670698 C37.3634758,97.8113288 35.2930738,96.468832 33.0041304,95.6425116 C30.3455456,94.6991714 27.5405627,94.2419181 24.7218116,94.2923721 C12.4955314,94.2923721 6.3823913,100.776093 6.3823913,113.743535 L6.40514493,121.249395 Z" id="Shape" fill="#808080" fill-rule="nonzero"></path>
                    <path d="M48.6813768,64.4176744 C48.7283974,67.4684098 48.1190945,70.4933123 46.8952174,73.2851163 C45.7596943,75.8396981 44.0958512,78.1215478 42.0145652,79.9786047 C39.8809158,81.8537464 37.4037165,83.2918188 34.722029,84.212093 C31.8273555,85.2141011 28.7842039,85.7132302 25.722971,85.688093 C22.42264,85.7270408 19.1377897,85.228598 15.9957971,84.212093 C13.209274,83.3126739 10.6374875,81.844139 8.4415942,79.8985116 C6.31835832,77.9795141 4.64383159,75.6116132 3.53818841,72.9647442 C2.32545202,70.0018028 1.72918212,66.820388 1.78615942,63.6167442 C1.7359843,60.6318257 2.32174133,57.6706893 3.50405797,54.9323721 C4.61005299,52.430446 6.23990921,50.1980455 8.28231884,48.3876279 C10.3954351,46.5388903 12.850379,45.1274889 15.5065942,44.2342326 C18.4390211,43.2456696 21.5154479,42.758362 24.6080435,42.7925581 C27.8511471,42.7644254 31.078919,43.2430606 34.175942,44.2113488 C36.9706533,45.0751904 39.5659183,46.4911037 41.8097826,48.376186 C43.9756598,50.2287711 45.7049351,52.5424438 46.8724638,55.1497674 C48.1346844,58.0711776 48.7518426,61.2331671 48.6813768,64.4176744 Z M5.62014493,64.0629767 C5.5720101,66.5969778 6.10945029,69.1076219 7.19014493,71.3972093 C8.19691159,73.4801564 9.64081221,75.3187737 11.4223188,76.7863256 C13.2767357,78.2863963 15.401224,79.4129859 17.6795652,80.1044651 C20.1539534,80.8632654 22.7265454,81.2488543 25.3134058,81.2486512 C27.8103474,81.2786522 30.2981161,80.939399 32.6969565,80.2417674 C34.9459572,79.6032366 37.0565399,78.5477322 38.9200725,77.1295814 C40.733914,75.7249511 42.2080292,73.9255577 43.2318841,71.8663256 C44.3513162,69.5519177 44.9051712,67.0021702 44.8473913,64.4291163 C44.901065,61.8574845 44.400389,59.3046605 43.3797826,56.9461395 C42.4502612,54.8598773 41.056825,53.0161315 39.3068841,51.5570233 C37.4730284,50.0646489 35.3610825,48.9559564 33.0951449,48.296093 C30.5412116,47.5269877 27.8883402,47.1414329 25.2223913,47.151907 C22.67268,47.1393613 20.1325401,47.466389 17.6681884,48.1244651 C15.4098017,48.7107373 13.2877535,49.7370103 11.4223188,51.1451163 C9.6264435,52.5333493 8.17732214,54.3237659 7.19014493,56.3740465 C6.07754523,58.7828004 5.5399226,61.4196757 5.62014493,64.0744186 L5.62014493,64.0629767 Z" id="Shape" fill="#808080" fill-rule="nonzero"></path>
                    <path d="M47.885,4.72548837 L11.4792029,30.0348837 C11.0165459,30.3552558 10.5425121,30.668 10.0571014,30.9731163 C9.60547465,31.2621438 9.12963685,31.5109942 8.635,31.7168372 L8.635,31.8770233 C9.01422705,31.8312558 9.54135266,31.7931163 10.2163768,31.7626047 C10.891401,31.732093 11.733285,31.732093 12.742029,31.7626047 L47.8622464,31.7626047 L47.8622464,35.996093 L2.55978261,35.996093 L2.55978261,31.3163721 L38.4991304,6.32734884 C39.067971,5.94595349 39.5988889,5.60269767 40.0918841,5.2975814 L41.4684783,4.45088372 L41.4684783,4.29069767 C40.7707005,4.37460465 39.9894928,4.43944186 39.1248551,4.4852093 C38.2602174,4.53097674 37.3007729,4.55386047 36.2465217,4.55386047 L2.55978261,4.55386047 L2.55978261,0.297488372 L47.8963768,0.297488372 L47.885,4.72548837 Z" id="Shape" fill="#808080" fill-rule="nonzero"></path>
                    <path d="M101.845217,243.082326 L56.5541304,243.082326 L56.5541304,231.091256 C56.5541304,223.287907 58.412343,217.395349 62.1287681,213.413581 C65.8451932,209.431814 71.3401932,207.44093 78.6137681,207.44093 C81.8708644,207.398814 85.1074265,207.96525 88.158913,209.111442 C90.9279151,210.160423 93.4360364,211.804318 95.5083333,213.928465 C97.5945677,216.110897 99.1995161,218.711431 100.218333,221.560186 C101.368543,224.804806 101.931112,228.230519 101.879348,231.674791 L101.845217,243.082326 Z M60.3653623,238.848837 L98.0226087,238.848837 L98.0226087,231.85786 C98.0667108,229.003678 97.6399826,226.161889 96.7597826,223.448093 C95.9916803,221.105681 94.7217289,218.96137 93.0395652,217.166512 C91.3464468,215.410771 89.2760448,214.068274 86.9871014,213.241953 C84.3285166,212.298613 81.5235337,211.84136 78.7047826,211.891814 C66.4785024,211.891814 60.3653623,218.375535 60.3653623,231.342977 L60.3653623,238.848837 Z" id="Shape" fill="#000000" fill-rule="nonzero"></path>
                    <polygon id="Shape" fill="#000000" fill-rule="nonzero" points="101.845217 196.365209 101.845217 200.598698 56.5541304 200.598698 56.5541304 196.365209"></polygon>
                    <path d="M98.7165942,153.275163 C101.290595,157.804928 102.64358,162.93228 102.641594,168.149581 C102.689366,171.20234 102.112365,174.232361 100.946449,177.051349 C99.8735881,179.600653 98.2671309,181.887529 96.2364493,183.756279 C94.1430765,185.648299 91.6890749,187.092526 89.0235507,188.001209 C86.0570527,189.014362 82.9410081,189.513458 79.8083333,189.477209 C77.6605019,189.482431 75.5191233,189.24058 73.425942,188.756372 C71.428867,188.298718 69.4954283,187.595472 67.6692754,186.662512 C65.900162,185.743626 64.262316,184.589039 62.8,183.229953 C61.3373044,181.889772 60.0696088,180.349055 59.0342754,178.653209 C57.9578849,176.871581 57.1381768,174.945424 56.5996377,172.932279 C56.0167737,170.746049 55.7297663,168.490742 55.7463768,166.227349 C55.6726273,162.073004 56.4914451,157.951603 58.1468841,154.144744 L62.7886232,154.144744 C60.6551776,157.991064 59.5461195,162.326539 59.5689855,166.730791 C59.5293221,169.324284 60.0453896,171.895961 61.0821014,174.270977 C62.0546676,176.454192 63.4779349,178.404335 65.2573913,179.991907 C67.0961752,181.611267 69.2285281,182.858367 71.5373913,183.664744 C74.0637006,184.554954 76.7218839,185.00761 79.3987681,185.003442 C82.0288085,185.034431 84.6472687,184.648297 87.1577536,183.859256 C89.4098977,183.171016 91.4998515,182.030539 93.3012319,180.506791 C95.0462336,179.002512 96.4307502,177.121163 97.3513768,175.003256 C98.3623426,172.613928 98.8586443,170.036342 98.8076087,167.440186 C98.8945148,163.938053 98.0668221,160.474218 96.4071014,157.394233 L82.5956522,157.394233 L82.5956522,167.760558 L78.7730435,167.760558 L78.7730435,153.160744 L98.7165942,153.275163 Z" id="Shape" fill="#000000" fill-rule="nonzero"></path>
                    <polygon id="Shape" fill="#000000" fill-rule="nonzero" points="101.845217 140.769209 101.845217 145.002698 56.5541304 145.002698 56.5541304 140.769209"></polygon>
                    <polygon id="Shape" fill="#000000" fill-rule="nonzero" points="60.3653623 118.800837 101.845217 118.800837 101.845217 123.034326 60.3653623 123.034326 60.3653623 136.169581 56.5541304 136.169581 56.5541304 105.631256 60.4108696 105.631256"></polygon>
                    <path d="M101.845217,76.4087442 L88.4092029,81.4317209 L88.4092029,100.98586 L101.845217,105.871535 L101.845217,110.57414 L56.5541304,93.2282791 L56.5541304,88.971907 L101.890725,71.7061395 L101.845217,76.4087442 Z M64.4496377,90.2991628 C64.047657,90.444093 63.585,90.5966512 63.0616667,90.7568372 C62.4721306,90.930853 61.8715866,91.0646455 61.2641304,91.1573023 L61.2641304,91.2831628 C61.8704738,91.3963 62.4704813,91.5414307 63.0616667,91.7179535 C63.585,91.8781395 64.047657,92.0306977 64.4496377,92.1756279 L84.6207246,99.5556279 L84.6207246,82.8619535 L64.4496377,90.2991628 Z" id="Shape" fill="#000000" fill-rule="nonzero"></path>
                    <polygon id="Shape" fill="#000000" fill-rule="nonzero" points="101.845217 66.7975814 56.5541304 66.7975814 56.5541304 62.564093 98.0681159 62.564093 98.0681159 44.2571163 101.890725 44.2571163"></polygon>
                    <path d="M149.161377,244.867256 C149.749915,244.073906 150.264071,243.227402 150.697246,242.338605 C151.585447,240.533096 152.202707,238.605179 152.528913,236.617674 C152.683647,235.691272 152.763546,234.753791 152.767826,233.814419 C152.767826,230.358977 152.104179,227.773116 150.776884,226.056837 C149.404284,224.326609 147.2864,223.368112 145.088478,223.482419 C144.011041,223.460064 142.941047,223.666709 141.948478,224.088837 C140.992471,224.536274 140.137017,225.174721 139.434203,225.965302 C138.56933,226.956672 137.806953,228.033936 137.158841,229.180465 C136.400386,230.477209 135.531957,232.002791 134.553551,233.757209 C133.4993,235.709953 132.501932,237.380465 131.561449,238.768744 C130.745691,240.02738 129.778976,241.180236 128.683116,242.201302 C127.759571,243.049304 126.681762,243.709789 125.508986,244.146419 C124.257616,244.578334 122.940928,244.787421 121.618116,244.764279 C119.902949,244.804933 118.20512,244.411491 116.68058,243.620093 C115.228439,242.839814 113.959783,241.755095 112.960362,240.439256 C111.901398,239.030593 111.103638,237.441454 110.605362,235.748093 C110.050551,233.892785 109.77446,231.964525 109.786232,230.027163 C109.699495,226.960633 110.20565,223.90634 111.276594,221.03386 L115.918333,221.03386 C114.339864,223.933754 113.554697,227.20293 113.642971,230.507721 C113.634397,231.801677 113.79894,233.090913 114.132174,234.340744 C114.424307,235.465481 114.909414,236.530299 115.565652,237.487256 C116.177737,238.369119 116.983568,239.097339 117.920652,239.615442 C118.928838,240.151946 120.056855,240.419806 121.197174,240.393488 C122.237748,240.417534 123.273115,240.238805 124.246159,239.867163 C125.159684,239.478897 125.984403,238.90647 126.66942,238.185209 C127.546231,237.261729 128.310107,236.236124 128.944783,235.130233 C129.703237,233.871628 130.56029,232.346047 131.515942,230.553488 C132.414008,228.839442 133.401371,227.174244 134.473913,225.564837 C135.330159,224.265763 136.33855,223.074897 137.477391,222.01786 C138.450388,221.118721 139.575445,220.401852 140.79942,219.901116 C142.044398,219.421722 143.368681,219.184861 144.701667,219.203163 C146.510381,219.17481 148.301231,219.566352 149.935,220.347349 C151.412767,221.067847 152.696532,222.135266 153.677971,223.459535 C154.726992,224.892514 155.498847,226.511032 155.953333,228.230791 C156.699473,231.049547 156.896497,233.986834 156.533551,236.880837 C156.419783,237.880093 156.252923,238.886977 156.032971,239.901488 C155.822744,240.88355 155.560707,241.853665 155.247971,242.807721 C155.006747,243.608145 154.67061,244.376461 154.246812,245.096093 L149.161377,244.867256 Z" id="Shape" fill="#000000" fill-rule="nonzero"></path>
                    <polygon id="Shape" fill="#000000" fill-rule="nonzero" points="114.32558 198.848093 155.805435 198.848093 155.805435 203.081581 114.32558 203.081581 114.32558 216.216837 110.468841 216.216837 110.468841 185.689953 114.32558 185.689953"></polygon>
                    <path d="M137.591159,148.206419 C150.257343,148.206419 156.590435,153.801488 156.590435,164.991628 C156.590435,175.670698 150.488671,181.010233 138.285145,181.010233 L110.468841,181.010233 L110.468841,176.81107 L137.90971,176.81107 C142.885169,176.81107 146.605386,175.804186 149.070362,173.790419 C151.535338,171.776651 152.767826,168.660651 152.767826,164.442419 C152.767826,156.471256 147.963019,152.485674 138.353406,152.485674 L110.468841,152.485674 L110.468841,148.206419 L137.591159,148.206419 Z" id="Shape" fill="#000000" fill-rule="nonzero"></path>
                    <path d="M155.805435,139.590698 L110.468841,139.590698 L110.468841,127.61107 C110.468841,119.807721 112.327053,113.915163 116.043478,109.933395 C119.759903,105.951628 125.254903,103.960744 132.528478,103.960744 C135.785575,103.918628 139.022137,104.485064 142.073623,105.631256 C144.842625,106.680237 147.350747,108.324132 149.423043,110.448279 C151.509278,112.630711 153.114226,115.231245 154.133043,118.08 C155.283253,121.32462 155.845822,124.750333 155.794058,128.194605 L155.805435,139.590698 Z M114.32558,135.357209 L151.982826,135.357209 L151.982826,128.366233 C152.026928,125.51205 151.6002,122.670261 150.72,119.956465 C149.951898,117.614053 148.681946,115.469742 146.999783,113.674884 C145.306664,111.919143 143.236262,110.576646 140.947319,109.750326 C138.288734,108.806985 135.483751,108.349732 132.665,108.400186 C120.43872,108.400186 114.32558,114.883907 114.32558,127.851349 L114.32558,135.357209 Z" id="Shape" fill="#000000" fill-rule="nonzero"></path>
                    <polygon id="Shape" fill="#000000" fill-rule="nonzero" points="155.805435 92.8735814 155.805435 97.1070698 110.468841 97.1070698 110.468841 92.8735814"></polygon>
                    <path d="M156.590435,64.6808372 C156.637455,67.7315725 156.028152,70.7564751 154.804275,73.5482791 C153.668752,76.1028609 152.004909,78.3847106 149.923623,80.2417674 C147.789974,82.1169092 145.312774,83.5549816 142.631087,84.4752558 C139.736413,85.4772639 136.693262,85.976393 133.632029,85.9512558 C130.331698,85.9902035 127.046848,85.4917608 123.904855,84.4752558 C121.118332,83.5758367 118.546545,82.1073018 116.350652,80.1616744 C114.227416,78.2426769 112.55289,75.874776 111.447246,73.227907 C110.23451,70.2649656 109.63824,67.0835508 109.695217,63.879907 C109.645042,60.8949885 110.230799,57.9338521 111.413116,55.1955349 C112.519111,52.6936088 114.148967,50.4612083 116.191377,48.6507907 C118.304493,46.8020531 120.759437,45.3906517 123.415652,44.4973953 C126.348079,43.5088324 129.424506,43.0215248 132.517101,43.0557209 C135.760205,43.0275882 138.987977,43.5062234 142.085,44.4745116 C144.879593,45.3386373 147.474804,46.7545214 149.718841,48.6393488 C151.884718,50.4919339 153.613993,52.8056066 154.781522,55.4129302 C156.043742,58.3343404 156.660901,61.4963299 156.590435,64.6808372 L156.590435,64.6808372 Z M113.529203,64.3261395 C113.481068,66.8601406 114.018508,69.3707847 115.099203,71.6603721 C116.10597,73.7433191 117.54987,75.5819365 119.331377,77.0494884 C121.185794,78.5495591 123.310282,79.6761487 125.588623,80.3676279 C128.063011,81.1264282 130.635603,81.5120171 133.222464,81.511814 C135.719405,81.541815 138.207174,81.2025617 140.606014,80.5049302 C142.855112,79.8666512 144.965739,78.8111245 146.82913,77.3927442 C148.642972,75.9881139 150.117087,74.1887205 151.140942,72.1294884 C152.260374,69.8150805 152.814229,67.265333 152.756449,64.6922791 C152.810123,62.1206473 152.309447,59.5678233 151.288841,57.2093023 C150.359319,55.1230401 148.965883,53.2792943 147.215942,51.820186 C145.382086,50.3278116 143.27014,49.2191192 141.004203,48.5592558 C138.45027,47.7901505 135.797398,47.4045957 133.131449,47.4150698 C130.581738,47.4025241 128.041598,47.7295518 125.577246,48.3876279 C123.31886,48.9739001 121.196811,50.0001731 119.331377,51.4082791 C117.535501,52.796512 116.08638,54.5869287 115.099203,56.6372093 C113.979624,59.0598749 113.441834,61.7132518 113.529203,64.3833488 L113.529203,64.3261395 Z" id="Shape" fill="#000000" fill-rule="nonzero"></path>
                    <rect id="_Slice_4" x="0.807753623" y="0" width="155.862319" height="246"></rect>
                </g>
            </g>
        </g>
    </g>
</svg>